# xmcd
#
# Track frame offsets:
#	150
#	16814
#	36388
#	60173
#	74177
#	89101
#	107073
#	124413
#	144945
#	166237
#	177827
#	196022
#
# Disc length: 2848 seconds
#
# Revision: 0
# Processed by: cddbd v1.4PL0 Copyright (c) Steve Scherf et al.
# Submitted via: EasyCDDAExtractor 4.6.9.1
#
DISCID=a60b1e0c
DTITLE=J. TEIXI BAND - Atrapado
DYEAR=1999
DGENRE=Blues - Rock
TTITLE0=Un sábado más
TTITLE1=Estoy loco
TTITLE2=Atrapado
TTITLE3=Es un juego
TTITLE4=Tengo un compañero
TTITLE5=Algo de amor
TTITLE6=De qué vas
TTITLE7=Hay un fuego
TTITLE8=Hazlo así
TTITLE9=Tic-toc
TTITLE10=Ya no quiero
TTITLE11=Una noche es
EXTD=
EXTT0=
EXTT1=
EXTT2=
EXTT3=
EXTT4=
EXTT5=
EXTT6=
EXTT7=
EXTT8=
EXTT9=
EXTT10=
EXTT11=
PLAYORDER=
